# vtk DataFile Version 3.0
GMRF structured grid
ASCII
DATASET STRUCTURED_POINTS
DIMENSIONS 10 10 1
ORIGIN 0 0 0
SPACING 0.111111 0.111111 1
POINT_DATA 100
SCALARS mean float 1
LOOKUP_TABLE default
0.048685
0.073069
0.104262
0.068562
0.036493
0.021943
0.024230
0.046254
0.088813
0.058997
0.072987
0.139328
0.275416
0.133494
0.055465
0.027051
0.028723
0.071973
0.249999
0.088179
0.103933
0.275170
0.999996
0.268026
0.080286
0.029124
0.020360
0.034889
0.069777
0.043721
0.067575
0.132593
0.267426
0.126352
0.048817
0.017925
0.009063
0.012335
0.020274
0.016929
0.033775
0.052795
0.078190
0.047493
0.019522
0.002621
-0.005304
-0.002550
0.002328
0.003720
0.014729
0.019417
0.023236
0.013399
-0.001322
-0.019040
-0.035652
-0.022110
-0.009806
-0.004376
0.005723
0.006324
0.005175
-0.002412
-0.020492
-0.060847
-0.131807
-0.062540
-0.024871
-0.011418
0.001839
0.001305
-0.001271
-0.010144
-0.037880
-0.132893
-0.499998
-0.133912
-0.040592
-0.016424
0.000329
-0.000369
-0.002688
-0.009159
-0.025870
-0.065740
-0.136623
-0.066428
-0.027751
-0.013688
-0.000154
-0.000792
-0.002643
-0.007093
-0.016569
-0.033314
-0.050948
-0.033856
-0.018046
-0.010578
SCALARS sample_0 float 1
LOOKUP_TABLE default
-0.418934
-0.640196
-0.231536
-0.759346
-0.639821
-0.162570
-0.604973
-0.644016
-0.174637
0.454231
0.635239
0.792579
-0.670352
-1.361864
-0.229851
-0.094636
-1.147341
0.012262
0.249785
0.707145
-0.428707
0.916270
1.001344
-0.554422
0.264455
0.166573
-1.480595
-0.418750
0.215732
0.330994
0.067383
-0.152999
-0.613785
-0.663632
0.542280
0.109760
-0.038539
0.039965
-0.209073
0.106687
0.447797
0.147894
-0.092890
-0.488071
0.517885
0.122294
0.457015
-0.303093
1.012636
0.084113
-0.800579
0.002499
0.235501
0.047581
0.301364
0.669836
0.251941
0.587178
0.069200
0.540060
-1.042693
0.181315
-0.435889
0.559294
-1.135356
-0.219750
0.185791
0.120738
0.047625
0.208897
-0.150865
0.369235
-0.492778
0.077853
0.226673
-0.774112
-0.501216
-0.932647
-0.305965
0.192258
0.735044
0.932995
0.899455
0.669343
0.422469
-0.759999
-0.839592
-0.464006
0.526925
-0.512810
0.115156
0.566401
0.746869
1.282921
0.282296
0.686358
-0.104237
0.291974
0.093381
-0.959451
SCALARS sample_1 float 1
LOOKUP_TABLE default
-1.166323
0.674367
-0.063294
0.484161
-0.114330
-0.293214
-0.514258
0.686488
0.638778
0.035077
-0.277261
0.881020
0.486997
-0.510130
0.009553
-0.531378
0.056803
0.982971
0.250997
0.279286
-0.420874
0.189923
1.000008
-0.246555
-0.262110
-1.104616
-0.345565
-0.865904
-0.492265
-0.503941
0.331144
0.687688
0.953877
-0.240167
-1.133341
0.024802
0.088581
0.575908
-0.013596
-0.874752
-0.851631
-0.012476
0.085039
-0.298845
-0.149407
-0.394927
0.274812
-0.247796
-0.349247
-0.486265
-0.689918
0.293090
-0.660590
0.093813
-0.214524
-0.024431
0.729298
0.252471
-0.744337
-0.627109
-0.311168
0.130362
-0.656371
-0.580883
0.269045
0.422954
-0.387757
-0.439030
0.014209
-0.176289
0.046535
-0.328906
0.653611
-0.565146
0.414168
-0.038939
-0.498516
0.097762
-0.508973
-0.795022
0.415320
0.025080
0.539863
0.955177
0.724469
0.564712
0.387255
-0.027479
0.103410
-0.442172
-0.777383
-0.470738
0.088558
-0.113642
-0.956318
0.191238
0.135276
-0.030262
0.734429
1.118173
SCALARS sample_2 float 1
LOOKUP_TABLE default
0.663340
0.681414
0.392574
-0.587999
-0.721123
-0.598213
-0.695859
0.313318
-0.330840
0.644943
0.037356
0.397494
-0.382726
-0.780556
-1.079047
-0.216570
-0.191374
-0.094144
0.251446
-0.451126
0.780369
-0.243339
0.998556
0.317577
-1.032404
-0.194964
-0.298070
0.253929
-0.350377
0.391672
0.278768
0.389301
1.095639
0.059094
0.145033
0.508759
0.462404
0.352502
-0.222702
0.155493
-0.723595
0.468400
0.179121
0.596665
0.147965
0.256061
0.316013
-0.011978
-0.182849
0.639009
-1.039594
0.013062
-0.018630
0.302958
-0.080161
-0.438906
-0.574024
0.494964
1.104668
0.664216
-0.678362
-0.456268
-0.407978
-0.895072
0.067417
-0.902664
-0.915300
0.051379
-0.354531
0.109670
-0.477065
-0.085663
-0.671208
0.380958
-0.027254
-0.114763
-0.499949
-0.013791
0.707535
-0.016426
-0.255118
-1.134332
-0.459704
0.229498
0.004269
0.114273
0.066059
-0.550247
0.355937
0.662484
-0.548958
-0.650115
-0.926168
0.083633
-0.125363
0.424580
0.125241
-0.699130
0.550286
0.053973
